# xmcd
#
# Track frame offsets:
#	150
#	14373
#	34663
#	48801
#	62984
#	87276
#	100017
#
# Disc length: 1340 seconds
#
# Revision: 0
# Processed by: cddbd v1.5.2PL0 Copyright (c) Steve Scherf et al.
# Submitted via: EasyCDDAExtractor 10.0.3.1
#
DISCID=4d053a07
DTITLE=K.A.S.A  and LOS AMIGOS - SINGLE
DYEAR=1900
DGENRE=
TTITLE0=Maczo - RADIO MEZCLA
TTITLE1=Maczo - LARGA MEZCLA
TTITLE2=Maczo - LATINA MEZCLA
TTITLE3=Maczo - INSTRUMENTAL
TTITLE4=Maczo - MARTIN S. REMIX
TTITLE5=Maczo - A CAPELLA
TTITLE6=Anuncio
EXTD=
EXTT0=
EXTT1=
EXTT2=
EXTT3=
EXTT4=
EXTT5=
EXTT6=
PLAYORDER=
